<?xml version="1.0" encoding="utf-8"?>
<!-- Generator: Adobe Illustrator 27.0.0, SVG Export Plug-In . SVG Version: 6.00 Build 0)  -->
<svg version="1.1" id="Layer_1" xmlns="http://www.w3.org/2000/svg" xmlns:xlink="http://www.w3.org/1999/xlink" x="0px" y="0px"
     viewBox="0 0 208 48" style="enable-background:new 0 0 208 48;" xml:space="preserve">
<style type="text/css">
	.st0{fill-rule:evenodd;clip-rule:evenodd;}
	.st1{fill-rule:evenodd;clip-rule:evenodd;fill:#F4831F;}
	.st2{fill:#F4831F;}
</style>
    <g>
	<g>
		<path fill="#ffffff" class="st0" d="M152.8,17.9h-3.4l-1,5c-0.1,0.8-0.2,1.5-0.1,1.9c0.3,0.3,0.8,0.6,1.6,0.6h1.3l-0.5,2.4h-2.9
			c-1.3,0-2.2-0.3-2.6-0.9c-0.4-0.7-0.6-1.6-0.3-2.9l1.3-6.1h-2.3l0.5-2.4h2.3l0.9-4.4h3.3l-0.9,4.4h3.4L152.8,17.9L152.8,17.9z"/>
        <polygon fill="#ffffff" class="st0" points="168.8,11 172.2,11 168.7,27.8 165.3,27.8 		"/>
        <path fill="#ffffff"  class="st0" d="M161.3,15.4h-6.6l-0.6,2.6c0,0,4,0,5.4,0s2.1,0.5,2.1,0.5c0.4,0.2,0.6,0.7,0.4,1.5l-0.1,0.3h-4.2
			c-1.7,0-3.1,0.2-4,0.8c-0.9,0.6-1.5,1.6-1.8,3c-0.2,1.2-0.1,2.1,0.3,2.7c0.6,0.6,1.5,0.9,2.7,0.9h8.7l1.6-7.7
			C166,17,164.6,15.4,161.3,15.4z M160.9,25.4h-4l-1.3-0.2c-0.3-0.1-0.3-0.5-0.3-0.9c0.1-0.6,0.3-0.9,0.7-1.2
			c0.3-0.1,0.8-0.2,1.5-0.2h3.8L160.9,25.4z"/>
        <path fill="#ffffff" class="st1" d="M76.7,16.1c-1.5,1.5-2.2,3.3-2.2,5.2s0.7,3.7,2.2,5.2c1.4,1.5,3.1,2.2,5.1,2.2c2.1,0,3.8-0.7,5.2-2.2
			c1.5-1.4,2.2-3.1,2.2-5.2c0-2-0.7-3.7-2.2-5.2c-1.4-1.4-3.1-2.1-5.2-2.1C79.8,14,78.1,14.7,76.7,16.1L76.7,16.1z"/>
        <path fill="#ffffff" class="st0" d="M98.6,15.4h7L105,18c0,0-4.5,0-5.7,0c-1.2,0-1.8,0.2-1.8,0.2c-0.3,0.1-0.7,0.5-0.8,0.9c-0.1,0.7,0.3,1,1.4,1
			h2.9c1.3,0,2.2,0.3,2.9,0.9c0.4,0.7,0.6,1.6,0.5,2.8c-0.2,1.2-0.8,2.1-1.6,2.8c-0.7,0.7-1.6,1-2.5,1H92l0.6-2.6h6.8
			c1.2,0,1.8-0.3,2-1.2c0.1-0.8-0.3-1.3-1.5-1.3H97c-1.5,0-2.7-0.2-3.1-0.6c-0.5-0.6-0.6-1.5-0.3-2.8c0.1-1.4,0.8-2.4,1.7-3
			C96,15.8,97.1,15.4,98.6,15.4L98.6,15.4z"/>
        <path fill="#ffffff" class="st0" d="M131.3,17c-1-1.2-2.4-1.7-4.4-1.7s-3.7,0.6-5.2,1.7c-1.5,1.2-2.4,2.7-2.8,4.7c-0.4,2-0.1,3.5,0.9,4.7
			c0.9,1.2,2.4,1.7,4.4,1.7s3.7-0.6,5.2-1.7c1.4-1.2,2.3-2.7,2.7-4.7C132.5,19.6,132.3,18.1,131.3,17z M127.2,24.4
			c-0.7,0.6-1.5,0.9-2.5,0.9c-0.9,0-1.5-0.3-2-0.9s-0.6-1.5-0.2-2.8c0.1-1.2,0.7-2.1,1.4-2.8c0.7-0.6,1.5-0.9,2.4-0.9
			c1,0,1.7,0.3,2.2,0.9c0.4,0.7,0.5,1.6,0.2,2.8C128.4,22.9,128,23.8,127.2,24.4z"/>
        <path fill="#ffffff" class="st0" d="M117.5,17.2c-0.8-1.2-2.2-1.7-4-1.7h-6.3l-3.5,16.9h3.3l0.9-4.5c0,0,1.3,0,2.8,0s2.9-0.3,2.9-0.3
			c0.9-0.3,1.7-0.8,2.4-1.5c1-1.2,1.8-2.6,2.2-4.2C118.4,19.8,118.3,18.2,117.5,17.2z M113.3,24.4c-0.7,0.5-1.7,0.7-2.9,0.7h-2
			l1.5-7h2.2c1.3,0,2,0.2,2.5,0.7c0.3,0.6,0.4,1.5,0.1,2.8C114.4,22.9,114,23.8,113.3,24.4z"/>
        <path fill="#ffffff" class="st0" d="M142.6,18l0.6-2.6h-3.6c-3.4,0-5.3,1.5-5.9,4.5l-1.6,7.8h3.3l1.6-7.8c0.1-0.8,0.5-1.3,1.1-1.5
			c0.6-0.3,1.6-0.5,2.3-0.5C140.9,18,142.6,18,142.6,18z"/>
        <g>
			<path class="st2" d="M176.2,27.9H170l0.4-2.2h5.1c0.6,0,1.1-0.1,1.5-0.3c0.4-0.2,0.7-0.6,0.8-1.2c0.1-0.6,0-1-0.3-1.2
				s-0.8-0.3-1.4-0.3H172l0.4-2.2h4.1c0.6,0,1.1-0.1,1.5-0.3c0.4-0.2,0.7-0.6,0.8-1.2c0.2-1-0.3-1.5-1.7-1.5H172l0.4-2.2h6
				c0.6,0,1,0.1,1.4,0.1c0.4,0.1,0.8,0.2,1.3,0.4c0.5,0.2,0.7,0.7,0.8,1.3c0.1,0.7,0,1.2-0.1,1.5c-0.1,0.3-0.2,0.8-0.4,1.1
				c-0.2,0.3-0.5,0.7-0.8,1c-0.3,0.3-0.7,0.6-1,0.8c0.1,0.1,0.3,0.2,0.5,0.3c0.1,0.1,0.3,0.3,0.4,0.5c0.1,0.2,0.2,0.5,0.3,0.9
				c0,0.3,0,0.8-0.1,1.1c-0.1,0.3-0.3,0.8-0.5,1.4c-0.3,0.6-0.7,1-1.3,1.3c-0.6,0.3-1,0.5-1.5,0.6C177.2,27.9,176.7,27.9,176.2,27.9
				z"/>
            <path class="st2" d="M185.8,20.7h4.5c1.3,0,2.3,0.3,3,0.8c0.7,0.5,0.8,1.4,0.6,2.7l-0.1,0.3c-0.1,0.4-0.3,0.8-0.5,1.2
				c-0.2,0.3-0.6,0.8-1.1,1.2c-0.5,0.4-1.2,0.7-2,1c-0.8,0.2-1.7,0.3-2.7,0.3c-0.6,0-1.3-0.1-2-0.1c-0.7-0.1-1.3-0.3-1.8-0.7
				c-0.5-0.3-0.9-0.8-1.1-1.3c-0.2-0.6-0.3-1.1-0.4-1.8c0-0.7,0.1-1.4,0.2-2.2c0.1-0.2,0.1-0.3,0.1-0.6c0.1-0.1,0.1-0.6,0.3-1.1
				c0.2-0.6,0.5-1.3,1-2c0.5-0.7,1-1.3,1.7-1.7c0.6-0.4,1.4-0.8,2.2-0.9c0.8-0.2,1.7-0.3,2.7-0.3h4.5l-0.4,2.2H190
				c-0.8,0-1.5,0.1-2,0.3c-0.5,0.2-1,0.5-1.3,0.9C186.3,19.2,186.1,19.9,185.8,20.7z M189.7,22.8h-4.3c-0.1,0.3-0.1,0.6-0.1,0.9
				s0,0.6,0.1,0.8c0.1,0.5,0.3,0.8,0.8,1.1c0.5,0.3,1.1,0.4,2,0.4c0.6,0,1-0.1,1.5-0.2c0.3-0.1,0.6-0.3,0.9-0.6
				c0.3-0.3,0.4-0.6,0.5-0.9c0.1-0.4,0-0.8-0.2-1C190.5,23,190.2,22.8,189.7,22.8z"/>
            <path class="st2" d="M200.6,27.9h-6.6l0.4-2.2h6.1c0.6,0,1-0.1,1.5-0.3c0.3-0.2,0.6-0.6,0.8-1.3c0.1-0.6,0.1-1-0.2-1.3
				c-0.3-0.2-0.7-0.3-1.3-0.3h-6.1l1.5-7.3H207l-0.4,2.2H199l-0.6,2.9h4.5c0.7,0,1.4,0.1,1.9,0.4c0.6,0.3,0.9,0.7,1.1,1.3
				c0.2,0.6,0.2,1.3,0.1,2C205.2,26.7,203.5,27.9,200.6,27.9z"/>
		</g>
	</g>
        <g>
		<path fill="#ffffff" d="M112,35.2h-0.8v1.6h-0.5v-3.9h1.3c0.9,0,1.3,0.5,1.3,1.1C113.3,34.6,112.9,35.2,112,35.2z M112,34.8
			c0.6,0,0.8-0.3,0.8-0.7c0-0.4-0.3-0.7-0.8-0.7h-0.8v1.5L112,34.8L112,34.8z"/>
            <path fill="#ffffff" d="M115.2,33.7c0.6,0,1,0.3,1.1,0.6v-0.6h0.5v3.1h-0.5v-0.6c-0.2,0.3-0.6,0.6-1.1,0.6c-0.8,0-1.5-0.6-1.5-1.6
			C113.8,34.3,114.4,33.7,115.2,33.7z M115.3,34.1c-0.6,0-1,0.4-1,1.1s0.5,1.1,1,1.1s1-0.4,1-1.1S115.8,34.1,115.3,34.1z"/>
            <path fill="#ffffff" d="M118.2,36.8h-0.5v-3.1h0.5v0.5c0.1-0.3,0.5-0.6,1-0.6v0.6h-0.1c-0.5,0-0.8,0.2-0.8,0.9V36.8z"/>
            <path fill="#ffffff"  d="M120,34.1h-0.4v-0.4h0.4V33h0.5v0.8h0.8v0.4h-0.8V36c0,0.3,0.1,0.4,0.4,0.4h0.3v0.4h-0.5c-0.6,0-0.8-0.2-0.8-0.8L120,34.1
			L120,34.1z"/>
            <path fill="#ffffff" d="M124.7,36.9c-0.8,0-1.5-0.6-1.5-1.6c0-1,0.7-1.6,1.5-1.6c0.9,0,1.5,0.6,1.5,1.6C126.2,36.2,125.6,36.9,124.7,36.9z
			 M124.7,36.4c0.6,0,1-0.3,1-1.1s-0.5-1.1-1-1.1c-0.6,0-1,0.3-1,1.1S124.2,36.4,124.7,36.4z"/>
            <path fill="#ffffff" d="M127,34.1h-0.4v-0.4h0.4v-0.2c0-0.7,0.3-1,1.1-1V33c-0.5,0-0.6,0.1-0.6,0.6v0.2h0.6v0.4h-0.6v2.7H127L127,34.1L127,34.1z"
            />
            <path fill="#ffffff" d="M131.6,32.9c0.9,0,1.3,0.5,1.3,1.1c0,0.5-0.3,1-0.9,1.1l1,1.6h-0.6l-0.9-1.6h-0.6v1.7h-0.5v-3.9H131.6z M131.6,33.3h-0.8
			v1.5h0.8c0.6,0,0.8-0.3,0.8-0.8C132.3,33.6,132.1,33.3,131.6,33.3z"/>
            <path fill="#ffffff" d="M133.6,32.9c0-0.2,0.1-0.3,0.3-0.3s0.3,0.1,0.3,0.3s-0.1,0.3-0.3,0.3S133.6,33.1,133.6,32.9z M133.6,33.7h0.5v3.1h-0.5
			V33.7z"/>
            <path fill="#ffffff" d="M137.3,35.1c0-0.6-0.3-1-0.8-1c-0.5,0-0.9,0.3-0.9,1v1.7H135v-3.1h0.5v0.4c0.2-0.3,0.6-0.5,1-0.5c0.7,0,1.3,0.4,1.3,1.3
			v1.8h-0.5V35.1z"/>
            <path fill="#ffffff" d="M139.9,33.7c0.6,0,1,0.3,1.1,0.6v-0.6h0.5v3.1c0,0.8-0.6,1.5-1.5,1.5c-0.8,0-1.4-0.4-1.5-1h0.5c0.1,0.3,0.5,0.6,1,0.6
			c0.6,0,1-0.3,1-1v-0.6c-0.2,0.3-0.6,0.6-1.1,0.6c-0.8,0-1.5-0.6-1.5-1.6C138.5,34.3,139.1,33.7,139.9,33.7z M140,34.1
			c-0.6,0-1,0.4-1,1.1s0.5,1.1,1,1.1c0.6,0,1-0.4,1-1.1S140.6,34.1,140,34.1z"/>
            <path fill="#ffffff" d="M142.3,32.9c0-0.2,0.1-0.3,0.3-0.3c0.2,0,0.3,0.1,0.3,0.3s-0.1,0.3-0.3,0.3C142.4,33.2,142.3,33.1,142.3,32.9z
			 M142.4,33.7h0.5v3.1h-0.5V33.7z"/>
            <path fill="#ffffff" d="M145.1,36.9c-0.9,0-1.5-0.6-1.5-1.6c0-1,0.6-1.6,1.5-1.6c0.9,0,1.5,0.6,1.5,1.5c0,0.1,0,0.2,0,0.3h-2.4c0.1,0.6,0.5,1,1,1
			s0.8-0.2,0.8-0.6h0.6C146.3,36.4,145.9,36.9,145.1,36.9z M144.1,35.1h2c0-0.6-0.4-0.9-1-0.9C144.6,34.1,144.2,34.4,144.1,35.1z"/>
            <path fill="#ffffff" d="M147.7,36.8h-0.5v-3.1h0.5v0.5c0.1-0.3,0.5-0.6,1-0.6v0.6h-0.1c-0.5,0-0.8,0.2-0.8,0.9V36.8z"/>
            <path fill="#ffffff" d="M152.1,36.9c-0.8,0-1.3-0.4-1.3-1h0.6c0,0.3,0.3,0.6,0.8,0.6c0.5,0,0.8-0.3,0.8-0.6c0-1-2.1-0.3-2.1-1.8
			c0-0.6,0.5-1,1.3-1c0.8,0,1.3,0.4,1.3,1h-0.6c0-0.3-0.3-0.6-0.8-0.6c-0.4,0-0.8,0.2-0.8,0.6c0,1,2.1,0.3,2.1,1.8
			C153.4,36.3,152.9,36.9,152.1,36.9z"/>
            <path fill="#ffffff" d="M155.8,33.7c0.8,0,1.5,0.6,1.5,1.6c0,1-0.6,1.6-1.5,1.6c-0.6,0-1-0.3-1.1-0.6v2h-0.5v-4.5h0.5v0.6
			C154.8,33.9,155.2,33.7,155.8,33.7z M155.6,34.1c-0.6,0-1,0.4-1,1.1s0.5,1.1,1,1.1s1-0.4,1-1.1C156.7,34.5,156.3,34.1,155.6,34.1z
			"/>
            <path fill="#ffffff" d="M159.3,36.9c-0.8,0-1.5-0.6-1.5-1.6c0-1,0.7-1.6,1.5-1.6c0.9,0,1.5,0.6,1.5,1.6C160.8,36.2,160.1,36.9,159.3,36.9z
			 M159.3,36.4c0.6,0,1-0.3,1-1.1s-0.5-1.1-1-1.1c-0.6,0-1,0.3-1,1.1S158.7,36.4,159.3,36.4z"/>
            <path fill="#ffffff" d="M162,36.8h-0.5v-3.1h0.5v0.5c0.1-0.3,0.5-0.6,1-0.6v0.6h-0.1c-0.5,0-0.8,0.2-0.8,0.9V36.8z"/>
            <path fill="#ffffff" d="M163.7,34.1h-0.4v-0.4h0.4V33h0.5v0.8h0.8v0.4h-0.7V36c0,0.3,0.1,0.4,0.4,0.4h0.3v0.4h-0.5c-0.6,0-0.8-0.2-0.8-0.8
			L163.7,34.1L163.7,34.1z"/>
            <path fill="#ffffff" d="M166.7,36.9c-0.7,0-1.2-0.4-1.3-1h0.6c0,0.3,0.3,0.5,0.7,0.5c0.4,0,0.6-0.2,0.6-0.4c0-0.7-1.8-0.3-1.8-1.4
			c0-0.5,0.4-0.8,1.1-0.8c0.7,0,1.1,0.3,1.2,1h-0.5c0-0.3-0.3-0.6-0.7-0.6c-0.3,0-0.6,0.2-0.6,0.4c0,0.7,1.7,0.3,1.8,1.4
			C167.8,36.4,167.4,36.9,166.7,36.9z"/>
            <path fill="#ffffff" d="M170,32.9h0.6l1.5,3.2l1.5-3.2h0.6v3.9h-0.5v-2.9l-1.3,2.9H172l-1.3-2.9v2.9h-0.5v-3.9H170z"/>
            <path fill="#ffffff" d="M176.2,36.9c-0.9,0-1.5-0.6-1.5-1.6c0-1,0.6-1.6,1.5-1.6c0.9,0,1.5,0.6,1.5,1.5c0,0.1,0,0.2,0,0.3h-2.4c0.1,0.6,0.5,1,1,1
			c0.5,0,0.8-0.2,0.8-0.6h0.6C177.4,36.4,176.9,36.9,176.2,36.9z M175.2,35.1h2c0-0.6-0.4-0.9-1-0.9
			C175.7,34.1,175.2,34.4,175.2,35.1z"/>
            <path fill="#ffffff" d="M179.6,33.7c0.5,0,0.9,0.3,1.1,0.6v-1.6h0.5v4.1h-0.5v-0.6c-0.2,0.3-0.6,0.6-1.1,0.6c-0.8,0-1.5-0.6-1.5-1.6
			C178.1,34.3,178.7,33.7,179.6,33.7z M179.6,34.1c-0.6,0-1,0.4-1,1.1s0.5,1.1,1,1.1s1-0.4,1-1.1S180.2,34.1,179.6,34.1z"/>
            <path fill="#ffffff" d="M182,32.9c0-0.2,0.1-0.3,0.3-0.3c0.2,0,0.3,0.1,0.3,0.3s-0.1,0.3-0.3,0.3C182.2,33.2,182,33.1,182,32.9z M182.1,33.7h0.5
			v3.1h-0.5V33.7z"/>
            <path fill="#ffffff" d="M184.7,33.7c0.6,0,1,0.3,1.1,0.6v-0.6h0.5v3.1h-0.5v-0.6c-0.2,0.3-0.6,0.6-1.1,0.6c-0.8,0-1.5-0.6-1.5-1.6
			C183.3,34.3,183.9,33.7,184.7,33.7z M184.8,34.1c-0.6,0-1,0.4-1,1.1s0.5,1.1,1,1.1s1-0.4,1-1.1S185.4,34.1,184.8,34.1z"/>
            <path fill="#ffffff" d="M192.3,34h-0.6c-0.2-0.4-0.6-0.7-1.2-0.7c-0.8,0-1.5,0.6-1.5,1.5c0,0.9,0.6,1.5,1.5,1.5c0.8,0,1.3-0.5,1.4-1.3h-1.5v-0.4
			h2.1v0.4c-0.1,1-0.8,1.7-1.9,1.7c-1.1,0-2-0.8-2-2c0-1.1,0.8-2,2-2C191.3,32.8,192,33.3,192.3,34z"/>
            <path fill="#ffffff" d="M193.6,36.8h-0.5v-3.1h0.5v0.5c0.1-0.3,0.5-0.6,1-0.6v0.6h-0.1c-0.5,0-0.8,0.2-0.8,0.9L193.6,36.8L193.6,36.8z"/>
            <path fill="#ffffff" d="M196.5,36.9c-0.8,0-1.5-0.6-1.5-1.6c0-1,0.7-1.6,1.5-1.6c0.9,0,1.5,0.6,1.5,1.6C198.1,36.2,197.4,36.9,196.5,36.9z
			 M196.5,36.4c0.6,0,1-0.3,1-1.1s-0.5-1.1-1-1.1c-0.6,0-1,0.3-1,1.1S196,36.4,196.5,36.4z"/>
            <path fill="#ffffff" d="M201.5,36.8H201v-0.4c-0.2,0.3-0.6,0.5-1,0.5c-0.7,0-1.3-0.4-1.3-1.3v-1.8h0.5v1.7c0,0.6,0.3,0.9,0.8,0.9
			c0.6,0,0.9-0.3,0.9-1v-1.7h0.5L201.5,36.8L201.5,36.8z"/>
            <path fill="#ffffff" d="M204,33.7c0.8,0,1.5,0.6,1.5,1.6c0,1-0.6,1.6-1.5,1.6c-0.6,0-1-0.3-1.1-0.6v2h-0.5v-4.5h0.5v0.6
			C203,33.9,203.4,33.7,204,33.7z M203.9,34.1c-0.6,0-1,0.4-1,1.1s0.5,1.1,1,1.1s1-0.4,1-1.1C204.9,34.5,204.4,34.1,203.9,34.1z"/>
	</g>
        <g>
		<path fill="#ffffff" d="M5.7,23c-0.4,0.4-1,0.6-2,0.6H2.4v3.1h-1v-7.4h2.4c0.8,0,1.5,0.2,1.9,0.6c0.4,0.4,0.6,0.9,0.6,1.5
			C6.3,22.1,6.1,22.6,5.7,23z M5,22.6c0.3-0.2,0.3-0.6,0.3-1c0-0.9-0.5-1.4-1.5-1.4H2.4v2.7h1.4C4.3,22.9,4.7,22.8,5,22.6z"/>
            <path fill="#ffffff" d="M8.6,26.5c-0.4-0.3-0.8-0.6-1-1c-0.2-0.5-0.3-1-0.3-1.6c0-0.6,0.1-1.1,0.4-1.6c0.3-0.5,0.6-0.8,1-1
			c0.4-0.2,0.9-0.3,1.5-0.3c0.6,0,1,0.1,1.5,0.3c0.4,0.2,0.8,0.6,1,1c0.3,0.4,0.4,1,0.4,1.6c0,0.6-0.1,1.1-0.4,1.6
			c-0.3,0.5-0.6,0.8-1,1c-0.4,0.3-1,0.3-1.5,0.3C9.6,26.8,9.1,26.7,8.6,26.5z M11,25.8c0.3-0.1,0.6-0.4,0.8-0.7
			c0.2-0.3,0.3-0.7,0.3-1.2S12,23,11.8,22.7c-0.2-0.3-0.4-0.6-0.7-0.7s-0.6-0.2-1-0.2c-0.3,0-0.7,0.1-1,0.2
			c-0.3,0.1-0.6,0.4-0.7,0.7c-0.2,0.3-0.3,0.7-0.3,1.2s0.1,0.8,0.3,1.2c0.1,0.3,0.4,0.6,0.7,0.7s0.6,0.2,1,0.2
			C10.4,26,10.7,25.9,11,25.8z"/>
            <path fill="#ffffff" d="M22,21l-1.8,5.8h-1l-1.4-4.6l-1.4,4.6h-1L13.7,21h1l1.3,4.9l1.5-4.9h0.9l1.4,4.9l1.3-4.9H22z"/>
            <path fill="#ffffff" d="M28.3,24.2h-4.6c0.1,0.6,0.2,1,0.6,1.3c0.3,0.3,0.8,0.5,1.3,0.5c0.4,0,0.8-0.1,1-0.3c0.3-0.2,0.5-0.4,0.6-0.8h1
			c-0.1,0.6-0.5,1-0.9,1.3c-0.5,0.3-1,0.6-1.7,0.6c-0.6,0-1-0.1-1.5-0.3c-0.4-0.3-0.8-0.6-1-1c-0.3-0.5-0.3-1-0.3-1.6
			s0.1-1.1,0.3-1.6c0.2-0.4,0.6-0.8,1-1c0.4-0.2,0.9-0.3,1.5-0.3c0.6,0,1,0.1,1.5,0.3c0.4,0.2,0.8,0.6,1,1c0.2,0.4,0.3,0.9,0.3,1.4
			C28.3,23.8,28.3,24,28.3,24.2z M27.1,22.5c-0.1-0.3-0.3-0.5-0.6-0.6c-0.3-0.1-0.6-0.2-0.9-0.2c-0.5,0-0.9,0.1-1.3,0.5
			c-0.3,0.3-0.6,0.8-0.6,1.3h3.6C27.3,23,27.2,22.8,27.1,22.5z"/>
            <path fill="#ffffff" d="M31.3,21.1c0.3-0.2,0.7-0.3,1.1-0.3v1h-0.3c-1,0-1.6,0.6-1.6,1.7v3.1h-1v-5.8h1v0.9C30.7,21.6,30.9,21.3,31.3,21.1z"/>
            <path fill="#ffffff" d="M38.8,24.2h-4.6c0.1,0.6,0.2,1,0.6,1.3c0.3,0.3,0.8,0.5,1.3,0.5c0.4,0,0.8-0.1,1-0.3c0.3-0.2,0.5-0.4,0.6-0.8h1
			c-0.1,0.6-0.5,1-0.9,1.3c-0.5,0.3-1,0.6-1.7,0.6c-0.6,0-1-0.1-1.5-0.3c-0.4-0.3-0.8-0.6-1-1c-0.3-0.5-0.3-1-0.3-1.6
			s0.1-1.1,0.3-1.6c0.2-0.4,0.6-0.8,1-1c0.4-0.2,0.9-0.3,1.5-0.3c0.6,0,1,0.1,1.5,0.3c0.4,0.2,0.8,0.6,1,1c0.2,0.4,0.3,0.9,0.3,1.4
			C38.8,23.8,38.8,24,38.8,24.2z M37.5,22.5c-0.1-0.3-0.3-0.5-0.6-0.6c-0.3-0.1-0.6-0.2-0.9-0.2c-0.5,0-0.9,0.1-1.3,0.5
			c-0.3,0.3-0.6,0.8-0.6,1.3h3.6C37.8,23,37.7,22.8,37.5,22.5z"/>
            <path fill="#ffffff" d="M40.1,22.3c0.2-0.4,0.6-0.8,1-1s0.9-0.3,1.4-0.3c0.4,0,0.8,0.1,1.3,0.3c0.4,0.2,0.7,0.5,0.9,0.8v-3.1h1v7.8h-1v-1.1
			c-0.2,0.3-0.5,0.6-0.8,0.8c-0.3,0.2-0.8,0.3-1.3,0.3c-0.5,0-1-0.1-1.4-0.3c-0.4-0.3-0.8-0.6-1-1c-0.2-0.5-0.3-1-0.3-1.5
			C39.7,23.3,39.8,22.7,40.1,22.3z M44.4,22.7c-0.2-0.3-0.4-0.6-0.7-0.8c-0.3-0.1-0.6-0.3-1-0.3c-0.3,0-0.7,0.1-1,0.3
			c-0.3,0.1-0.6,0.4-0.7,0.8c-0.2,0.3-0.3,0.7-0.3,1.1c0,0.4,0.1,0.8,0.3,1.2c0.2,0.3,0.4,0.6,0.7,0.8c0.3,0.1,0.6,0.3,1,0.3
			c0.3,0,0.7-0.1,1-0.3c0.3-0.1,0.6-0.4,0.7-0.8c0.1-0.3,0.3-0.7,0.3-1.1C44.7,23.5,44.5,23,44.4,22.7z"/>
            <path fill="#ffffff" d="M51.8,21.2c0.3-0.2,0.8-0.3,1.3-0.3c0.5,0,1,0.1,1.4,0.3c0.4,0.3,0.8,0.6,1,1c0.2,0.4,0.3,1,0.3,1.5
			c0,0.6-0.1,1.1-0.3,1.5c-0.2,0.5-0.6,0.8-1,1c-0.4,0.3-0.9,0.3-1.4,0.3c-0.5,0-0.9-0.1-1.3-0.3c-0.3-0.2-0.6-0.5-0.8-0.8v1h-1
			v-7.6h1v3.1C51.2,21.7,51.5,21.4,51.8,21.2z M54.7,22.7c-0.2-0.3-0.4-0.6-0.7-0.8c-0.3-0.1-0.6-0.3-1-0.3c-0.3,0-0.7,0.1-1,0.3
			c-0.3,0.2-0.6,0.4-0.7,0.8c-0.2,0.3-0.3,0.7-0.3,1.1c0,0.4,0.1,0.8,0.3,1.1c0.2,0.3,0.4,0.6,0.7,0.8c0.3,0.2,0.6,0.3,1,0.3
			c0.3,0,0.7-0.1,1-0.3c0.3-0.1,0.6-0.4,0.7-0.8c0.2-0.3,0.3-0.7,0.3-1.2C54.9,23.4,54.8,23,54.7,22.7z"/>
            <path fill="#ffffff" d="M62.2,21l-3.5,8.5h-1l1.1-2.8L56.5,21h1l1.8,4.7l1.8-4.7H62.2z"/>
            <path fill="#ffffff" d="M63,22.1c-0.1-0.1-0.2-0.3-0.2-0.5c0-0.2,0.1-0.3,0.2-0.5c0.1-0.1,0.3-0.2,0.5-0.2c0.2,0,0.3,0.1,0.4,0.2
			c0.1,0.1,0.2,0.3,0.2,0.5s-0.1,0.3-0.2,0.5c-0.1,0.1-0.3,0.2-0.4,0.2C63.3,22.3,63.2,22.2,63,22.1z M63,26.6
			c-0.1-0.1-0.2-0.3-0.2-0.5c0-0.2,0.1-0.3,0.2-0.5s0.3-0.2,0.5-0.2c0.2,0,0.3,0.1,0.4,0.2c0.1,0.1,0.2,0.3,0.2,0.5
			c0,0.2-0.1,0.3-0.2,0.5c-0.1,0.1-0.3,0.2-0.4,0.2C63.3,26.8,63.2,26.7,63,26.6z"/>
	</g>
</g>
</svg>
