<?xml version="1.0" encoding="UTF-8"?>
<svg width="36px" height="36px" viewBox="0 0 36 36" version="1.1" xmlns="http://www.w3.org/2000/svg" xmlns:xlink="http://www.w3.org/1999/xlink">
    <!-- Generator: Sketch 52.1 (67048) - http://www.bohemiancoding.com/sketch -->
    <title>play copy 2</title>
    <desc>Created with Sketch.</desc>
    <g id="Desktop" stroke="none" stroke-width="1" fill="none" fill-rule="evenodd">
        <g id="Homepage" transform="translate(-1038.000000, -6294.000000)" fill-rule="nonzero">
            <g id="play-copy-2" transform="translate(1038.000000, 6294.000000)">
                <path d="M18,0 C8.05900781,0 0,8.05886719 0,18 C0,27.9411328 8.05900781,36 18,36 C27.9409922,36 36,27.9411328 36,18 C36,8.05886719 27.9409922,0 18,0 Z" id="Shape" fill="#FFB600"></path>
                <path d="M26.342,19.1310957 L15.142,25.7975077 C14.915375,25.9322526 14.6576875,26 14.4,26 C14.16655,26 13.93275,25.9446688 13.721175,25.8326731 C13.27615,25.597682 13,25.1516991 13,24.6667176 L13,11.3338936 C13,10.8489121 13.27615,10.4029291 13.721175,10.1679381 C14.1662,9.9316138 14.7103625,9.94594658 15.142,10.2031034 L26.342,16.8695154 C26.75115,17.1136728 27,17.5407398 27,18.0003056 C27,18.4598714 26.75115,18.8870217 26.342,19.1310957 Z" id="Path" fill="#FFFFFF"></path>
            </g>
        </g>
    </g>
</svg>